Coordinates
version=1
nRows=10
nColumns=22
inDegrees=yes

Units are S.I. units (second, meters, Newtons, ...)
If the header above contains a line with 'inDegrees', this indicates whether rotational values are in degrees (yes) or radians (no).

endheader
time	pelvis_tilt	pelvis_list	pelvis_rotation	pelvis_tx	pelvis_ty	pelvis_tz	hip_flexion_r	hip_adduction_r	hip_rotation_r	knee_angle_r	ankle_angle_r	subtalar_angle_r	hip_flexion_l	hip_adduction_l	hip_rotation_l	knee_angle_l	ankle_angle_l	subtalar_angle_l	lumbar_extension	lumbar_bending	lumbar_rotation
      0.01000000	     -2.75335783	     -3.08370774	     -1.70703553	     -1.17724640	      0.95376083	      0.39041469	      9.49044151	      3.98371301	     -5.22450707	    -20.70674693	     13.90359379	     -1.87163517	     10.50609798	     -2.96855148	     -5.60246429	    -24.55423220	     13.92485802	     -6.92961041	     -4.00535618	      2.12097301	      0.33861524
      0.02000000	     -2.75713342	     -3.07954342	     -1.71448989	     -1.17720670	      0.95376313	      0.39026925	      9.50658832	      3.97076200	     -5.20809979	    -20.73089468	     13.89276266	     -1.87846053	     10.49632251	     -2.95676196	     -5.62253797	    -24.53757738	     13.91898964	     -6.94121912	     -4.01429036	      2.11711753	      0.31875250
      0.03000000	     -2.76109543	     -3.07211595	     -1.71631976	     -1.17716640	      0.95376730	      0.39009125	      9.52454838	      3.95057031	     -5.20253477	    -20.75728899	     13.88554558	     -1.88369821	     10.48871514	     -2.93844317	     -5.63559601	    -24.52151821	     13.91129137	     -6.95101830	     -4.02712168	      2.10770362	      0.30023384
      0.04000000	     -2.76529409	     -3.06567002	     -1.71206244	     -1.17712205	      0.95377147	      0.38989647	      9.54412643	      3.92959012	     -5.20431160	    -20.78665066	     13.88115406	     -1.88647717	     10.48211012	     -2.92019813	     -5.64629670	    -24.50511566	     13.90358534	     -6.95813263	     -4.04207602	      2.09615160	      0.27371146
      0.05000000	     -2.76934354	     -3.05812639	     -1.70267291	     -1.17707988	      0.95377560	      0.38969275	      9.56621892	      3.90585007	     -5.21319908	    -20.82059077	     13.87727489	     -1.88713608	     10.47775573	     -2.90061668	     -5.65635988	    -24.49045162	     13.89518056	     -6.96394136	     -4.05965842	      2.08023007	      0.24070632
      0.06000000	     -2.77884185	     -3.03439455	     -1.68551885	     -1.17704179	      0.95377002	      0.38946502	      9.59823749	      3.85809308	     -5.25531302	    -20.86119419	     13.88530463	     -1.88312476	     10.48254474	     -2.85952310	     -5.65398084	    -24.47727953	     13.87261519	     -6.97560639	     -4.07202249	      2.04311659	      0.20730382
      0.07000000	     -2.78776570	     -3.02785026	     -1.66517344	     -1.17700641	      0.95376328	      0.38925331	      9.62664314	      3.83363925	     -5.27864377	    -20.89739993	     13.88623196	     -1.87410950	     10.49121998	     -2.84062675	     -5.65664530	    -24.47165023	     13.86147074	     -6.98383208	     -4.08710777	      2.02431720	      0.16445969
      0.08000000	     -2.79337406	     -3.03144423	     -1.65126630	     -1.17696252	      0.95376511	      0.38906801	      9.64690952	      3.82458705	     -5.28593385	    -20.92631234	     13.88232607	     -1.86993774	     10.49294332	     -2.83507343	     -5.66470405	    -24.46321150	     13.85781042	     -6.98546635	     -4.10599006	      2.01503098	      0.12753677
      0.09000000	     -2.79792609	     -3.02818239	     -1.62988351	     -1.17691740	      0.95376129	      0.38887495	      9.66811540	      3.80413975	     -5.31380583	    -20.95947460	     13.87708200	     -1.86319418	     10.50130376	     -2.82174981	     -5.66821026	    -24.46633396	     13.85186423	     -6.98724427	     -4.12566797	      1.99709300	      0.08691401
      0.10000000	     -2.80368621	     -3.02691967	     -1.60554429	     -1.17685842	      0.95375229	      0.38868659	      9.68753119	      3.78561960	     -5.35257952	    -20.98941639	     13.87657901	     -1.85422056	     10.51166037	     -2.80776856	     -5.65652896	    -24.47177407	     13.84612791	     -6.98961572	     -4.14145191	      1.98131087	      0.04643471
